<?xml version="1.0" encoding="UTF-8" standalone="no"?>
<svg width="118px" height="118px" viewBox="0 0 118 118" version="1.1" xmlns="http://www.w3.org/2000/svg" xmlns:xlink="http://www.w3.org/1999/xlink">
    <!-- Generator: Sketch 41 (35326) - http://www.bohemiancoding.com/sketch -->
    <title>Lechuga Ocejo@1x</title>
    <desc>Created with Sketch.</desc>
    <defs></defs>
    <g id="Dashboard" stroke="none" stroke-width="1" fill="none" fill-rule="evenodd">
        <g id="Lechuga-Ocejo" transform="translate(1.000000, 1.000000)">
            <g id="Group-Copy" transform="translate(27.000000, 28.000000)" fill="#4A4A4A">
                <path d="M31.857186,60.3449762 L31.6668605,60.3449762 C21.0107907,60.3449762 12.9032093,57.0415357 7.5712093,50.5261548 C-2.71862791,37.9587024 0.957395349,18.1271667 1.11527907,17.2891429 L1.23423256,16.6813214 L1.82467442,16.504131 C5.04867442,15.5404762 8.14651163,15.05175 11.0223023,15.05175 C27.4645581,15.05175 32.7605116,30.8340476 33.4100698,33.0075357 C39.2604186,39.760381 41.5861395,45.8342381 40.3266744,51.0642619 C38.7687442,57.5447857 32.312093,60.1663333 32.0352558,60.2738095 L31.857186,60.3449762 Z M3.00844186,18.2876548 C2.48216279,21.6956667 0.426069767,38.5955714 9.13995349,49.2335357 C14.0365116,55.2100833 21.5421163,58.2600833 31.4563488,58.3022024 C32.4115814,57.8708452 37.1884651,55.4867619 38.3606977,50.5675476 C39.4543488,45.9816548 37.2281163,40.4691429 31.7367907,34.1846905 L31.578907,34.0031429 L31.5212326,33.7678571 C31.3424419,33.0866905 27.0053256,17.0945238 11.0223023,17.0945238 C8.51851163,17.0945238 5.82511628,17.4961071 3.00844186,18.2876548 Z" id="Shape"></path>
                <path d="M31.6675814,60.3449762 L31.6675814,58.3022024 C40.6662326,58.3022024 47.657814,55.6712143 52.4390233,50.4818571 C59.2323488,43.1102976 59.6483256,32.6074048 59.6122791,29.4927738 C43.2262558,28.932881 38.0485349,39.5105714 37.8387442,39.9695238 L35.9967674,39.1155238 C36.2303488,38.5955714 42.0208605,26.3912143 60.6496977,27.49575 L61.5371628,27.5465833 L61.6042093,28.4390714 C61.648186,29.0098571 62.5392558,42.5249881 53.9234186,51.8710595 C48.742814,57.4939524 41.2530698,60.3449762 31.6675814,60.3449762 Z" id="Shape"></path>
                <path d="M57.267093,28.5153214 L55.2434419,28.3896905 C55.9196744,17.2346786 52.5933023,9.03308333 51.5393023,6.74630952 C35.9924419,9.4172381 25.4365814,21.4952381 25.3291628,21.6186905 L23.7964651,20.2810476 C24.2556977,19.745119 35.2635814,7.13336905 51.9711395,4.60767857 L52.6726047,4.50165476 L53.0136047,5.1319881 C53.2183488,5.5205 58.0990465,14.7866905 57.267093,28.5153214 Z" id="Shape"></path>
                <path d="M5.68669767,17.3312619 L3.97160465,16.24125 C4.185,15.8992143 9.32306977,7.82760714 18.4608605,6.02084524 C24.2636279,4.88145238 30.3006977,6.52917857 36.4084186,10.9335238 L35.2282558,12.5957738 C29.5956279,8.53564286 24.0934884,6.99466667 18.8725116,8.02222619 C10.5983953,9.64744048 5.73427907,17.2542857 5.68669767,17.3312619 Z" id="Shape"></path>
                <path d="M46.4884651,7.5109881 C33.4965814,-3.14658333 24.1367442,6.96997619 23.7452791,7.40496429 L22.2443023,6.03246429 C22.351,5.91046429 33.3113023,-5.93733333 47.7695581,5.92644048 L46.4884651,7.5109881 Z" id="Shape"></path>
                <path d="M27.5157442,60.0102024 C9.94883721,46.8066071 10.3446279,27.8406905 10.3727442,27.0397024 L12.4007209,27.1043333 C12.3927907,27.2895119 12.0366512,45.8269762 28.7276279,58.3719167 L27.5157442,60.0102024 Z" id="Shape"></path>
                <path d="M34.554907,60.1053333 L33.6515814,58.2760595 C47.5864419,51.2886548 50.2798372,38.7473452 50.3079535,38.6217143 L52.2955581,39.0276548 C52.1852558,39.5802857 49.4118372,52.654619 34.554907,60.1053333 Z" id="Shape"></path>
                <path d="M19.3288605,51.8245833 C17.918,44.9540952 21.3013256,39.8540595 21.4476744,39.6412857 L23.1231163,40.790119 C23.0921163,40.835869 20.0815116,45.4166786 21.3128605,51.4106548 L19.3288605,51.8245833 Z" id="Shape"></path>
                <path d="M46.7544884,47.0179286 C46.7516047,46.9874286 46.4300698,43.8059881 45.2030465,40.5831548 L47.0962093,39.8504286 C48.4227209,43.3419524 48.7601163,46.6780714 48.7752558,46.8189524 L46.7544884,47.0179286 Z" id="Shape"></path>
            </g>
            <ellipse id="Oval-3-Copy" stroke="#4A4A4A" stroke-width="2" cx="58" cy="58" rx="58" ry="58"></ellipse>
        </g>
    </g>
</svg>